<svg xmlns="http://www.w3.org/2000/svg" height="596pt" version="1.1" viewBox="0 0 596.73187 596" width="596pt">
<g id="surface1">
<path d="M 398 587.402344 L 368.152344 587.402344 C 360.859375 576.40625 346.042969 573.410156 335.050781 580.707031 C 332.394531 582.464844 330.113281 584.746094 328.355469 587.402344 L 278.605469 587.402344 C 251.132812 587.402344 228.855469 565.125 228.855469 537.652344 C 228.855469 510.179688 251.136719 487.90625 278.605469 487.90625 L 398.003906 487.90625 L 398.003906 587.402344 Z M 398 587.402344 " style=" stroke:none;fill-rule:nonzero;fill:rgb(26.27451%,59.607843%,81.960784%);fill-opacity:1;" />
<path d="M 398 557.550781 L 507.449219 557.550781 L 547.25 567.503906 L 587.046875 557.550781 L 587.046875 517.753906 L 547.25 507.804688 L 507.449219 517.753906 L 398 517.753906 Z M 398 557.550781 " style=" stroke:none;fill-rule:nonzero;fill:rgb(75.686275%,78.039216%,78.823529%);fill-opacity:1;" />
<path d="M 398 487.902344 L 278.605469 487.902344 C 251.132812 487.902344 228.855469 510.179688 228.855469 537.652344 C 228.855469 565.125 251.136719 587.398438 278.605469 587.398438 L 328.355469 587.398438 C 334.621094 578.027344 346.613281 574.355469 357.058594 578.59375 L 398 537.652344 Z M 398 487.902344 " style=" stroke:none;fill-rule:nonzero;fill:rgb(24.313725%,54.901961%,78.039216%);fill-opacity:1;" />
<path d="M 358.203125 10.316406 L 304.625 26.382812 L 342.132812 63.894531 Z M 358.203125 10.316406 " style=" stroke:none;fill-rule:nonzero;fill:rgb(19.607843%,41.176471%,63.137255%);fill-opacity:1;" />
<path d="M 304.625 26.382812 L 258.707031 40.164062 L 328.355469 109.8125 L 342.132812 63.894531 Z M 304.625 26.382812 " style=" stroke:none;fill-rule:nonzero;fill:rgb(99.215686%,65.490196%,18.431373%);fill-opacity:1;" />
<path d="M 29.859375 268.996094 L 258.699219 40.15625 L 293.523438 74.980469 L 64.683594 303.820312 Z M 29.859375 268.996094 " style=" stroke:none;fill-rule:nonzero;fill:rgb(26.27451%,59.607843%,81.960784%);fill-opacity:1;" />
<path d="M 64.683594 303.824219 L 293.523438 74.984375 L 328.351562 109.808594 L 99.507812 338.652344 Z M 64.683594 303.824219 " style=" stroke:none;fill-rule:nonzero;fill:rgb(24.313725%,54.901961%,78.039216%);fill-opacity:1;" />
<path d="M 318.402344 308.808594 L 318.402344 269.007812 C 318.402344 263.515625 322.863281 259.058594 328.355469 259.058594 L 378.101562 259.058594 C 366.847656 234.8125 342.550781 219.289062 315.816406 219.261719 C 293.039062 219.25 271.699219 230.40625 258.703125 249.109375 L 69.660156 249.109375 L 69.660156 328.707031 L 258.707031 328.707031 C 271.699219 347.414062 293.042969 358.566406 315.816406 358.558594 C 342.554688 358.527344 366.851562 343.007812 378.105469 318.757812 L 328.355469 318.757812 C 322.863281 318.757812 318.402344 314.300781 318.402344 308.808594 Z M 318.402344 308.808594 " style=" stroke:none;fill-rule:nonzero;fill:rgb(75.686275%,78.039216%,78.823529%);fill-opacity:1;" />
<path d="M 149.257812 278.957031 L 258.707031 278.957031 L 258.707031 298.859375 L 149.257812 298.859375 Z M 149.257812 278.957031 " style=" stroke:none;fill-rule:nonzero;fill:rgb(72.156863%,74.117647%,74.901961%);fill-opacity:1;" />
<path d="M 258.699219 497.851562 L 517.394531 239.160156 L 587.035156 308.800781 L 328.34375 567.496094 Z M 258.699219 497.851562 " style=" stroke:none;fill-rule:nonzero;fill:rgb(99.215686%,65.490196%,18.431373%);fill-opacity:1;" />
<path d="M 308.449219 547.601562 L 567.140625 288.910156 L 587.039062 308.808594 L 328.34375 567.5 Z M 308.449219 547.601562 " style=" stroke:none;fill-rule:nonzero;fill:rgb(100%,60%,27.058824%);fill-opacity:1;" />
<path d="M 358.203125 510.011719 C 358.203125 552.757812 323.558594 587.402344 280.8125 587.402344 C 260.289062 587.402344 240.605469 579.253906 226.089844 564.734375 L 32.625 371.273438 C 18.109375 356.757812 9.960938 337.074219 9.960938 316.550781 C 9.960938 273.804688 44.605469 239.160156 87.351562 239.160156 C 107.875 239.160156 127.558594 247.308594 142.074219 261.824219 L 335.535156 455.289062 C 350.054688 469.796875 358.214844 489.484375 358.203125 510.011719 Z M 358.203125 510.011719 " style=" stroke:none;fill-rule:nonzero;fill:rgb(89.019608%,29.411765%,52.941176%);fill-opacity:1;" />
<path d="M 59.710938 316.550781 L 39.8125 316.550781 C 39.8125 308.738281 41.742188 301.046875 45.421875 294.152344 L 62.964844 303.566406 C 60.8125 307.554688 59.699219 312.011719 59.710938 316.550781 Z M 59.710938 316.550781 " style=" stroke:none;fill-rule:nonzero;fill:rgb(94.901961%,52.156863%,69.019608%);fill-opacity:1;" />
<path d="M 102.425781 398.863281 L 53.742188 350.167969 C 51.992188 348.417969 50.367188 346.539062 48.90625 344.539062 L 64.964844 332.777344 C 65.832031 333.960938 66.785156 335.074219 67.820312 336.113281 L 116.496094 384.796875 Z M 102.425781 398.863281 " style=" stroke:none;fill-rule:nonzero;fill:rgb(94.901961%,52.156863%,69.019608%);fill-opacity:1;" />
<path d="M 480.511719 276.039062 L 494.582031 261.96875 L 524.429688 291.820312 L 510.359375 305.890625 Z M 480.511719 276.039062 " style=" stroke:none;fill-rule:nonzero;fill:rgb(19.607843%,41.176471%,63.137255%);fill-opacity:1;" />
<path d="M 450.65625 305.898438 L 464.726562 291.828125 L 484.625 311.726562 L 470.554688 325.796875 Z M 450.65625 305.898438 " style=" stroke:none;fill-rule:nonzero;fill:rgb(19.607843%,41.176471%,63.137255%);fill-opacity:1;" />
<path d="M 420.816406 335.742188 L 434.886719 321.671875 L 464.738281 351.523438 L 450.667969 365.59375 Z M 420.816406 335.742188 " style=" stroke:none;fill-rule:nonzero;fill:rgb(19.607843%,41.176471%,63.137255%);fill-opacity:1;" />
<path d="M 390.957031 365.585938 L 405.027344 351.515625 L 424.921875 371.410156 L 410.851562 385.480469 Z M 390.957031 365.585938 " style=" stroke:none;fill-rule:nonzero;fill:rgb(19.607843%,41.176471%,63.137255%);fill-opacity:1;" />
<path d="M 361.117188 395.441406 L 375.1875 381.371094 L 405.039062 411.222656 L 390.964844 425.292969 Z M 361.117188 395.441406 " style=" stroke:none;fill-rule:nonzero;fill:rgb(19.607843%,41.176471%,63.137255%);fill-opacity:1;" />
<path d="M 335.539062 455.289062 L 142.074219 261.824219 C 127.558594 247.308594 107.878906 239.160156 87.351562 239.160156 C 82.335938 239.167969 77.34375 239.65625 72.425781 240.621094 C 87.5 243.585938 101.359375 250.960938 112.226562 261.824219 L 305.6875 455.289062 C 335.90625 485.503906 335.914062 534.496094 305.699219 564.714844 C 294.832031 575.589844 280.972656 582.972656 265.890625 585.9375 C 270.804688 586.902344 275.800781 587.390625 280.8125 587.398438 C 323.558594 587.398438 358.203125 552.753906 358.203125 510.011719 C 358.214844 489.484375 350.054688 469.796875 335.539062 455.289062 Z M 335.539062 455.289062 " style=" stroke:none;fill-rule:nonzero;fill:rgb(85.098039%,28.235294%,50.588235%);fill-opacity:1;" />
<path d="M 398 517.753906 L 398 557.550781 L 437.800781 517.753906 Z M 398 517.753906 " style=" stroke:none;fill-rule:nonzero;fill:rgb(72.156863%,74.117647%,74.901961%);fill-opacity:1;" />
<path d="M 594.082031 301.773438 L 524.433594 232.125 C 520.554688 228.246094 514.246094 228.246094 510.363281 232.125 L 318.402344 424.085938 L 232.976562 338.65625 L 253.730469 338.65625 C 268.835938 357.503906 291.667969 368.476562 315.816406 368.507812 C 346.394531 368.515625 374.191406 350.777344 387.058594 323.035156 C 389.414062 318.070312 387.316406 312.140625 382.351562 309.773438 C 381.027344 309.136719 379.574219 308.808594 378.101562 308.808594 L 328.355469 308.808594 L 328.355469 269.007812 L 378.101562 269.007812 C 383.59375 268.988281 388.042969 264.523438 388.023438 259.03125 C 388.023438 257.558594 387.683594 256.105469 387.058594 254.78125 C 374.191406 227.042969 346.394531 209.300781 315.816406 209.308594 C 291.667969 209.339844 268.832031 220.3125 253.730469 239.160156 L 213.074219 239.160156 L 335.386719 116.847656 C 336.550781 115.683594 337.40625 114.25 337.886719 112.667969 L 367.734375 13.171875 C 369.316406 7.90625 366.320312 2.367188 361.058594 0.785156 C 359.199219 0.226562 357.207031 0.226562 355.347656 0.785156 L 255.847656 30.632812 C 254.265625 31.109375 252.835938 31.96875 251.671875 33.128906 L 43.910156 240.890625 C 2.101562 264.820312 -12.394531 318.109375 11.542969 359.929688 C 15.394531 366.65625 20.121094 372.835938 25.601562 378.308594 L 219.054688 571.769531 C 234.867188 587.640625 256.207031 596.765625 278.605469 597.242188 L 278.605469 597.351562 L 328.355469 597.351562 C 331.675781 597.351562 334.78125 595.6875 336.632812 592.921875 C 341.296875 586.503906 350.285156 585.082031 356.703125 589.75 C 357.914062 590.632812 358.988281 591.707031 359.875 592.921875 C 361.726562 595.6875 364.832031 597.351562 368.15625 597.351562 L 398.003906 597.351562 C 403.496094 597.351562 407.953125 592.894531 407.953125 587.402344 L 407.953125 567.5 L 506.226562 567.5 L 544.832031 577.152344 C 546.425781 577.550781 548.074219 577.550781 549.667969 577.152344 L 589.464844 567.203125 C 593.894531 566.097656 597 562.117188 597 557.550781 L 597 517.753906 C 597 513.1875 593.894531 509.207031 589.464844 508.101562 L 549.667969 498.152344 C 548.085938 497.742188 546.414062 497.742188 544.832031 498.152344 L 506.226562 507.804688 L 402.121094 507.804688 L 594.082031 315.84375 C 597.972656 311.953125 597.972656 305.652344 594.082031 301.773438 Z M 407.953125 527.703125 L 507.449219 527.703125 C 508.265625 527.703125 509.082031 527.605469 509.867188 527.40625 L 547.25 518.0625 L 577.097656 525.523438 L 577.097656 549.78125 L 547.25 557.246094 L 509.867188 547.902344 C 509.082031 547.703125 508.265625 547.601562 507.449219 547.601562 L 407.953125 547.601562 Z M 258.707031 259.058594 C 261.957031 259.058594 265.003906 257.46875 266.863281 254.800781 C 278.027344 238.792969 296.304688 229.242188 315.816406 229.210938 C 332.660156 229.179688 348.691406 236.433594 359.773438 249.109375 L 328.355469 249.109375 C 317.359375 249.109375 308.453125 258.015625 308.453125 269.011719 L 308.453125 308.808594 C 308.453125 319.804688 317.359375 328.710938 328.355469 328.710938 L 359.773438 328.710938 C 348.691406 341.386719 332.660156 348.636719 315.816406 348.609375 C 296.304688 348.578125 278.027344 339.027344 266.863281 323.019531 C 265.003906 320.351562 261.957031 318.757812 258.707031 318.757812 L 213.074219 318.757812 L 193.175781 298.859375 L 258.707031 298.859375 L 258.707031 278.960938 L 173.277344 278.960938 L 153.378906 259.058594 Z M 184.9375 239.160156 L 143.425781 239.160156 L 293.53125 89.058594 L 314.285156 109.8125 Z M 343.359375 25.152344 L 337.386719 45.050781 L 323.460938 31.121094 Z M 301.796875 37.628906 L 330.890625 66.71875 L 323.605469 91 L 277.519531 44.910156 Z M 258.707031 54.234375 L 279.460938 74.988281 L 119.199219 235.25 C 109.0625 231.261719 98.253906 229.210938 87.359375 229.210938 C 86.078125 229.210938 84.824219 229.347656 83.550781 229.398438 Z M 280.8125 577.453125 C 262.914062 577.5 245.742188 570.386719 233.125 557.703125 L 39.660156 364.238281 C 13.324219 337.902344 13.324219 295.195312 39.660156 268.859375 C 66 242.519531 108.703125 242.523438 135.039062 268.859375 L 328.503906 462.320312 C 354.839844 488.660156 354.839844 531.351562 328.503906 557.699219 C 315.867188 570.347656 298.703125 577.453125 280.8125 577.453125 Z M 388.050781 557.550781 L 388.050781 577.453125 L 372.917969 577.453125 C 366.519531 570.644531 357.59375 566.796875 348.253906 566.804688 C 347.796875 566.804688 347.359375 566.925781 346.910156 566.945312 C 350.511719 562.757812 353.714844 558.238281 356.472656 553.453125 L 388.050781 521.871094 Z M 367.964844 513.773438 C 367.964844 512.5 368.152344 511.246094 368.152344 509.960938 C 368.214844 486.789062 359.007812 464.550781 342.574219 448.203125 L 332.472656 438.15625 L 368.152344 402.476562 L 390.96875 425.289062 L 405.039062 411.222656 L 382.222656 388.40625 L 398.003906 372.625 L 410.867188 385.492188 L 424.9375 371.421875 L 412.070312 358.554688 L 427.851562 342.777344 L 450.667969 365.589844 L 464.738281 351.523438 L 441.921875 328.707031 L 457.703125 312.925781 L 470.566406 325.792969 L 484.636719 311.722656 L 471.769531 298.859375 L 487.550781 283.078125 L 510.367188 305.894531 L 524.4375 291.824219 L 501.621094 269.007812 L 517.402344 253.226562 L 572.980469 308.808594 Z M 367.964844 513.773438 " style=" stroke:none;fill-rule:nonzero;fill:rgb(0%,0%,0%);fill-opacity:1;" />
<path d="M 62.964844 303.566406 L 45.421875 294.152344 C 41.742188 301.046875 39.8125 308.738281 39.8125 316.550781 L 59.710938 316.550781 C 59.699219 312.011719 60.8125 307.554688 62.964844 303.566406 Z M 62.964844 303.566406 " style=" stroke:none;fill-rule:nonzero;fill:rgb(0%,0%,0%);fill-opacity:1;" />
<path d="M 64.964844 332.777344 L 48.90625 344.539062 C 50.367188 346.535156 51.988281 348.417969 53.742188 350.167969 L 102.425781 398.863281 L 116.492188 384.792969 L 67.820312 336.109375 C 66.785156 335.074219 65.828125 333.960938 64.964844 332.777344 Z M 64.964844 332.777344 " style=" stroke:none;fill-rule:nonzero;fill:rgb(0%,0%,0%);fill-opacity:1;" />
</g>
</svg>