<svg id="Capa_1" enable-background="new 0 0 512 512" height="512" viewBox="0 0 512 512" width="512" xmlns="http://www.w3.org/2000/svg"><g><g><g><path d="m80.284 145.947 44.286 44.286c33.636-33.636 80.103-54.44 131.43-54.44v-62.63c-68.621 0-130.746 27.814-175.716 72.784z" fill="#f6e266"/></g><g><path d="m431.716 145.947-44.286 44.286c-33.636-33.636-80.103-54.44-131.43-54.44v-62.63c68.621 0 130.746 27.814 175.716 72.784z" fill="#e49542"/></g><g><path d="m431.7 145.963-44.27 44.27c33.636 33.636 54.44 80.103 54.44 131.43h62.63c0-68.621-27.83-130.731-72.8-175.7z" fill="#c8ea73"/></g><g><path d="m453.5 170.887c.697 6.006 1.073 12.083 1.073 18.228 0 27.925-7.348 54.526-20.631 78.716 5.148 17.041 7.928 35.11 7.928 53.831h62.63c0-56.708-19.02-108.959-51-150.775z" fill="#b7e445"/></g><g><path d="m80.3 145.963 44.27 44.27c-33.636 33.636-54.44 80.103-54.44 131.43h-62.63c0-68.621 27.83-130.731 72.8-175.7z" fill="#dd5790"/></g><g><path d="m287.429 353.092 167.144-230.002-230.002 167.144z" fill="#4073c8"/></g><g><g><circle cx="256" cy="271.155" fill="#f1d0a5" r="50.508"/></g><g><path d="m281.122 227.345c4.253 7.401 6.698 15.973 6.698 25.122 0 27.895-22.613 50.508-50.508 50.508-9.149 0-17.721-2.445-25.122-6.698 8.715 15.165 25.064 25.386 43.81 25.386 27.895 0 50.508-22.613 50.508-50.508 0-18.746-10.221-35.095-25.386-43.81z" fill="#f1b986"/></g><g><path d="m171.146 362.069v44.447h169.707v-44.447c0-22.316-18.091-40.406-40.406-40.406h-88.894c-22.316 0-40.407 18.091-40.407 40.406z" fill="#9dc6fb"/></g><g><path d="m300.447 321.663h-24.244c22.316 0 40.406 18.091 40.406 40.406v44.447h24.244v-44.447c.001-22.315-18.09-40.406-40.406-40.406z" fill="#80b4fb"/></g></g></g><g><path d="m171.146 438.842h169.707v32.325h-169.707z" fill="#4073c8"/></g><g><path d="m434.37 321.663c0 4.143 3.358 7.5 7.5 7.5h62.63c4.142 0 7.5-3.357 7.5-7.5 0-64.29-23.749-125.343-67.008-172.633l15.645-21.528c2.169-2.984 1.845-7.102-.762-9.711.001-.001.001-.002.002-.003-54.457-54.459-126.862-84.451-203.877-84.451-4.142 0-7.5 3.357-7.5 7.5s3.358 7.5 7.5 7.5c70.065 0 136.094 26.199 186.933 73.94l-14.278 10.376c-47.278-43.248-108.339-66.99-172.655-66.99-38.667 0-75.821 8.406-110.43 24.986-3.736 1.789-5.313 6.269-3.524 10.004 1.79 3.735 6.27 5.314 10.004 3.523 30.327-14.528 62.739-22.379 96.45-23.393v47.665c-23.455.887-46.221 5.928-67.771 15.046-20.726 8.764-39.544 20.946-56.049 36.241l-33.704-33.704c9.825-9.233 20.415-17.652 31.577-25.074 3.449-2.293 4.386-6.949 2.092-10.398-2.293-3.448-6.949-4.387-10.398-2.092-14.058 9.348-27.271 20.172-39.271 32.172-.154.154-.301.315-.44.481-48.071 48.31-74.536 112.4-74.536 180.543 0 4.143 3.358 7.5 7.5 7.5h62.63c4.142 0 7.5-3.357 7.5-7.5 0-47.645 18.554-92.437 52.243-126.126 16.385-16.386 35.461-29.246 56.699-38.227 21.983-9.302 45.342-14.018 69.428-14.018 39.07 0 77.035 12.862 107.951 36.381l-68.041 49.445c-10.407-9.886-24.457-15.971-39.91-15.971-31.986 0-58.008 26.022-58.008 58.008 0 17.04 7.388 32.386 19.126 43.008h-5.565c-26.416 0-47.906 21.491-47.906 47.907v44.447c0 4.143 3.358 7.5 7.5 7.5h169.707c4.142 0 7.5-3.357 7.5-7.5v-44.447c0-18.883-10.985-35.245-26.898-43.044l32.631-44.905c2.435-3.351 1.692-8.041-1.658-10.477-3.351-2.435-8.042-1.692-10.477 1.658l-35.764 49.216c-1.884-.226-3.797-.356-5.741-.356h-5.565c11.738-10.622 19.126-25.968 19.126-43.008 0-11.133-3.159-21.539-8.619-30.382l115.255-83.756-58.121 79.977c-2.435 3.351-1.693 8.041 1.658 10.477 1.332.967 2.874 1.434 4.403 1.434 2.319-.001 4.606-1.072 6.073-3.092l23.334-32.108c9.044 11.876 16.55 24.797 22.362 38.531 9.301 21.982 14.017 45.342 14.017 69.428zm-371.599-7.5h-47.657c1.794-59.051 24.768-114.459 65.276-157.503l33.682 33.682c-31.53 34.013-49.546 77.475-51.301 123.821zm200.729-185.716v-47.656c56.755 1.736 110.421 23.14 152.74 60.883l-39.664 28.824c-32.189-25.696-71.881-40.449-113.076-42.051zm36.947 200.716c18.145 0 32.906 14.762 32.906 32.907v36.947h-27.427v-12.704c0-4.143-3.358-7.5-7.5-7.5s-7.5 3.357-7.5 7.5v12.704h-69.854v-12.704c0-4.143-3.358-7.5-7.5-7.5s-7.5 3.357-7.5 7.5v12.704h-27.427v-36.947c0-18.146 14.762-32.907 32.906-32.907zm-44.447-15c-23.715 0-43.008-19.293-43.008-43.008s19.293-43.008 43.008-43.008 43.008 19.293 43.008 43.008-19.293 43.008-43.008 43.008zm179.971-152.721c37.754 42.33 59.177 95.989 60.914 152.721h-47.657c-.887-23.456-5.943-46.221-15.062-67.773-6.883-16.266-15.959-31.479-27.003-45.307z"/><path d="m340.85 431.342h-111.43c-4.142 0-7.5 3.357-7.5 7.5s3.358 7.5 7.5 7.5h103.93v17.32h-154.7v-17.32h15.77c4.142 0 7.5-3.357 7.5-7.5s-3.358-7.5-7.5-7.5h-23.27c-4.142 0-7.5 3.357-7.5 7.5v32.32c0 4.143 3.358 7.5 7.5 7.5h169.7c4.142 0 7.5-3.357 7.5-7.5v-32.32c0-4.142-3.358-7.5-7.5-7.5z"/><path d="m504.5 345.592h-62.63c-4.142 0-7.5 3.357-7.5 7.5s3.358 7.5 7.5 7.5h62.63c4.142 0 7.5-3.357 7.5-7.5s-3.358-7.5-7.5-7.5z"/><path d="m484.297 377.917h-22.224c-4.142 0-7.5 3.357-7.5 7.5s3.358 7.5 7.5 7.5h22.224c4.142 0 7.5-3.357 7.5-7.5s-3.358-7.5-7.5-7.5z"/><path d="m70.13 345.592h-62.63c-4.142 0-7.5 3.357-7.5 7.5s3.358 7.5 7.5 7.5h62.63c4.142 0 7.5-3.357 7.5-7.5s-3.358-7.5-7.5-7.5z"/><path d="m49.927 377.917h-22.224c-4.142 0-7.5 3.357-7.5 7.5s3.358 7.5 7.5 7.5h22.224c4.142 0 7.5-3.357 7.5-7.5s-3.358-7.5-7.5-7.5z"/></g></g></svg>