<svg height="480pt" viewBox="0 0 480 480.00247" width="480pt" xmlns="http://www.w3.org/2000/svg"><path d="m8 104.003906h32v368h-32zm0 0" fill="#995023"/><path d="m440 104.003906h32v368h-32zm0 0" fill="#995023"/><path d="m40 136.003906h400v32h-400zm0 0" fill="#8f4b20"/><path d="m136 320.234375v-189.375c-.085938-10.574219 2.445312-21.003906 7.371094-30.359375 7.558594-14.097656 16.628906-23.699219 16.628906-40.496094.003906-13.921875-5.578125-27.261718-15.488281-37.035156-9.910157-9.773438-23.328125-15.164062-37.246094-14.964844-6.300781.105469-12.523437 1.40625-18.34375 3.824219l25.421875 25.421875c3.125 3.125 3.125 8.1875 0 11.3125l-16.964844 16.96875c-1.503906 1.5-3.539062 2.34375-5.660156 2.34375-2.125 0-4.160156-.84375-5.660156-2.34375l-25.714844-25.703125c-3.183594 7.195313-4.644531 15.035156-4.269531 22.894531 1.652343 11.367188 6.101562 22.144532 12.941406 31.367188 6.972656 10.714844 10.78125 23.179687 10.984375 35.960937v190.183594c-19.464844 12.4375-28.390625 36.230469-21.910156 58.402344 6.480468 22.175781 26.808594 37.414062 49.910156 37.414062s43.433594-15.238281 49.914062-37.414062c6.480469-22.171875-2.445312-45.964844-21.914062-58.402344zm-15.75 63.769531h-24l-12-20 12-20h24l12 20zm0 0" fill="#c4c4c2"/><path d="m99.503906 120.003906h16v200h-16zm0 0" fill="#a6a6a4"/><path d="m224 200.003906h-32v-136l-8-24 8-32h32l8 32-8 24zm0 0" fill="#c4c4c2"/><path d="m168 200.003906v32h16l-16 32v144c0 22.089844 17.910156 40 40 40 22.09375 0 40-17.910156 40-40v-144l-16-32h16v-32zm0 0" fill="#7ea633"/><path d="m40 264.003906h400v208h-400zm0 0" fill="#995023"/><path d="m280 8.003906h64v256h-64zm0 0" fill="#fdb62f"/><g fill="#fd882f"><path d="m280 32.003906h32v16h-32zm0 0"/><path d="m280 64.003906h32v16h-32zm0 0"/><path d="m280 96.003906h32v16h-32zm0 0"/><path d="m280 128.003906h32v16h-32zm0 0"/><path d="m280 160.003906h32v16h-32zm0 0"/><path d="m280 192.003906h32v16h-32zm0 0"/><path d="m280 224.003906h32v16h-32zm0 0"/></g><path d="m392 48.003906-9.597656 24h19.199218zm0 0" fill="#7a3e1a"/><path d="m382.402344 72.003906-6.402344 16v176h32v-176l-6.398438-16zm0 0" fill="#dd4a43"/><path d="m40 423.464844v48.539062h400v-195.730468c-126.332031 66.324218-260.808594 115.808593-400 147.191406zm0 0" fill="#8f4b20"/><path d="m40 264.003906h16v208h-16zm0 0" fill="#7a3e1a"/><path d="m424 264.003906h16v208h-16zm0 0" fill="#7a3e1a"/><path d="m40 136.003906h16v32h-16zm0 0" fill="#7a3e1a"/><path d="m424 136.003906h16v32h-16zm0 0" fill="#7a3e1a"/><path d="m472 96.003906h-32c-4.417969 0-8 3.582032-8 8v24h-16v-40c.003906-1.019531-.191406-2.023437-.566406-2.96875l-6.398438-16-9.601562-24c-1.21875-3.03125-4.15625-5.019531-7.425782-5.019531-3.265624 0-6.207031 1.988281-7.421874 5.019531l-9.601563 24-6.398437 16c-.382813.941406-.582032 1.949219-.585938 2.96875v40h-16v-120c0-4.417968-3.582031-7.99999975-8-7.99999975h-64c-4.417969 0-8 3.58203175-8 7.99999975v120h-40v-62.707031l7.59375-22.765625c.476562-1.441406.535156-2.992188.167969-4.464844l-8-32c-.890625-3.5625-4.089844-6.06249975-7.761719-6.06249975h-32c-3.671875 0-6.871094 2.49999975-7.757812 6.06249975l-8 32c-.371094 1.472656-.3125 3.023438.167968 4.464844l7.589844 22.765625v62.707031h-39.832031c.296875-8.273437 2.425781-16.375 6.234375-23.722656 1.726562-3.199219 3.542968-6.167969 5.292968-9.046875 7.519532-10.257813 11.804688-22.523437 12.304688-35.230469.050781-16.070312-6.394531-31.480468-17.871094-42.730468-11.460937-11.207032-26.898437-17.414063-42.925781-17.26953175-7.3125.13671875-14.535156 1.63671875-21.296875 4.42187475-2.5.996094-4.328125 3.179688-4.875 5.8125-.542969 2.632813.273438 5.363281 2.171875 7.269531l25.4375 25.398438-16.910156 16.953125-25.761719-25.679687c-1.875-1.871094-4.554688-2.691407-7.15625-2.191407s-4.785156 2.253907-5.835938 4.6875c-3.644531 8.316407-5.316406 17.367188-4.886718 26.4375 1.480468 12.175781 6.042968 23.769531 13.253906 33.6875l.800781 1.363281c5.765625 8.9375 9.109375 19.21875 9.695313 29.839844h-23.839844v-24c0-4.417968-3.582031-8-8-8h-32c-4.417969 0-8 3.582032-8 8v368c0 4.417969 3.582031 8 8 8h464c4.417969 0 8-3.582031 8-8v-368c0-4.417968-3.582031-8-8-8zm-120 160v-80h16v80zm32-166.464844 3.816406-9.535156h8.367188l3.816406 9.535156v166.464844h-16zm32 86.464844h16v80h-16zm16-32v16h-16v-16zm-64 0v16h-16v-16zm-32-128v240h-48v-16h24v-16h-24v-16h24v-16h-24v-16h24v-16h-24v-16h24v-16h-24v-16h24v-16h-24v-16h24v-16h-24v-16h24v-16h-24v-16zm-83.054688 240-8-16h3.054688c4.417969 0 8-3.582031 8-8v-32c0-4.417968-3.582031-8-8-8h-16v-16h40v80zm-108.945312-80h40v16h-16c-4.417969 0-8 3.582032-8 8v32c0 4.417969 3.582031 8 8 8h3.058594l-8 16h-19.058594zm46.808594 51.796875c-1.457032-2.359375-4.03125-3.796875-6.808594-3.796875h-8v-16h64v16h-8c-2.773438-.003906-5.347656 1.433594-6.804688 3.789063-1.460937 2.359375-1.59375 5.304687-.355468 7.785156l10.21875 20.425781h-54.113282l10.257813-20.425781c1.222656-2.484375 1.074219-5.425781-.394531-7.777344zm81.191406-83.796875v16h-40v-16zm-73.75-128h19.503906l5.917969 23.679688-7.261719 21.789062c-.273437.816406-.410156 1.671875-.410156 2.53125v128h-16v-128c0-.859375-.136719-1.714844-.40625-2.53125l-7.265625-21.789062zm-14.25 144h-40v-16h40zm-119.664062-104.859375 16.089843 16c6.242188 6.226563 16.347657 6.226563 22.589844 0l16.984375-16.925781c6.226562-6.246094 6.226562-16.347656 0-22.59375l-15.503906-15.46875c.96875-.089844 1.9375-.144531 2.898437-.152344 11.773438-.164062 23.121094 4.398438 31.503907 12.667969 8.386718 8.269531 13.105468 19.554687 13.101562 31.332031-.5625 9.761719-4.035156 19.128906-9.964844 26.902344-1.890625 3.105469-3.84375 6.304688-5.730468 9.800781-5.523438 10.539063-8.375 22.273438-8.304688 34.175781v125.121094h-12.480469v-136h-16v136h-11.519531v-125.921875c-.183594-14.265625-4.390625-28.1875-12.132812-40.167969l-.867188-1.421874c-5.738281-7.691407-9.492188-16.675782-10.925781-26.160157-.121094-2.398437-.03125-4.804687.261719-7.1875zm-16.335938 120.859375h24v80h-24zm24-32v16h-24v-16zm-56-32h16v352h-16zm32 160h384v192h-384zm416 192h-16v-352h16zm0 0"/></svg>